<?xml version="1.0" encoding="UTF-8" standalone="no"?>
<!DOCTYPE svg PUBLIC "-//W3C//DTD SVG 1.1//EN"
 "http://www.w3.org/Graphics/SVG/1.1/DTD/svg11.dtd">
<!-- Generated by graphviz version 2.50.0 (0)
 -->
<!-- Title: DockerDeps Pages: 1 -->
<svg width="726pt" height="590pt"
 viewBox="0.00 0.00 726.00 590.00" xmlns="http://www.w3.org/2000/svg" xmlns:xlink="http://www.w3.org/1999/xlink">
<g id="graph0" class="graph" transform="scale(1 1) rotate(0) translate(4 586)">
<title>DockerDeps</title>
<polygon fill="white" stroke="transparent" points="-4,4 -4,-586 722,-586 722,4 -4,4"/>
<g id="clust1" class="cluster">
<title>clusterDockerfile</title>
<polygon fill="none" stroke="royalblue" points="281,-116 281,-503 505,-503 505,-116 281,-116"/>
<text text-anchor="middle" x="393" y="-487.8" font-family="Times,serif" font-size="14.00">docker/&lt;distro&gt;/Dockerfile</text>
</g>
<g id="clust2" class="cluster">
<title>clusterCache</title>
<polygon fill="none" stroke="royalblue" points="8,-8 8,-83 592,-83 592,-8 8,-8"/>
<text text-anchor="middle" x="300" y="-67.8" font-family="Times,serif" font-size="14.00">cache/&lt;distro&gt;/</text>
</g>
<!-- DISTRO_IMG -->
<g id="node1" class="node">
<title>DISTRO_IMG</title>
<path fill="royalblue" stroke="black" d="M379,-577.73C379,-579.53 350.31,-581 315,-581 279.69,-581 251,-579.53 251,-577.73 251,-577.73 251,-548.27 251,-548.27 251,-546.47 279.69,-545 315,-545 350.31,-545 379,-546.47 379,-548.27 379,-548.27 379,-577.73 379,-577.73"/>
<path fill="none" stroke="black" d="M379,-577.73C379,-575.92 350.31,-574.45 315,-574.45 279.69,-574.45 251,-575.92 251,-577.73"/>
<text text-anchor="middle" x="315" y="-559.3" font-family="Times,serif" font-size="14.00">&lt;distro&gt;:latest</text>
</g>
<!-- ENV_IMG -->
<g id="node4" class="node">
<title>ENV_IMG</title>
<path fill="royalblue" stroke="black" d="M485,-467.35C485,-469.99 441.52,-472.13 388,-472.13 334.48,-472.13 291,-469.99 291,-467.35 291,-467.35 291,-424.4 291,-424.4 291,-421.76 334.48,-419.62 388,-419.62 441.52,-419.62 485,-421.76 485,-424.4 485,-424.4 485,-467.35 485,-467.35"/>
<path fill="none" stroke="black" d="M485,-467.35C485,-464.72 441.52,-462.58 388,-462.58 334.48,-462.58 291,-464.72 291,-467.35"/>
<text text-anchor="middle" x="388" y="-449.68" font-family="Times,serif" font-size="14.00">bazel&#45;swig:&lt;distro&gt;_env</text>
<text text-anchor="middle" x="388" y="-434.68" font-family="Times,serif" font-size="14.00">env</text>
</g>
<!-- DISTRO_IMG&#45;&gt;ENV_IMG -->
<g id="edge4" class="edge">
<title>DISTRO_IMG&#45;&gt;ENV_IMG</title>
<path fill="none" stroke="black" d="M326.09,-544.51C336.77,-527.67 353.21,-501.74 366.46,-480.84"/>
<polygon fill="black" stroke="black" points="369.53,-482.55 371.92,-472.23 363.61,-478.8 369.53,-482.55"/>
</g>
<!-- PKG -->
<g id="node2" class="node">
<title>PKG</title>
<polygon fill="royalblue" stroke="black" points="524.5,-582 401.5,-582 397.5,-578 397.5,-544 520.5,-544 524.5,-548 524.5,-582"/>
<polyline fill="none" stroke="black" points="520.5,-578 397.5,-578 "/>
<polyline fill="none" stroke="black" points="520.5,-578 520.5,-544 "/>
<polyline fill="none" stroke="black" points="520.5,-578 524.5,-582 "/>
<text text-anchor="middle" x="461" y="-566.8" font-family="Times,serif" font-size="14.00">packages</text>
<text text-anchor="middle" x="461" y="-551.8" font-family="Times,serif" font-size="14.00">e.g. bazel, g++</text>
</g>
<!-- PKG&#45;&gt;ENV_IMG -->
<g id="edge5" class="edge">
<title>PKG&#45;&gt;ENV_IMG</title>
<path fill="none" stroke="black" stroke-dasharray="5,2" d="M449.43,-543.76C438.74,-526.89 422.58,-501.4 409.51,-480.8"/>
<polygon fill="black" stroke="black" points="412.44,-478.88 404.13,-472.31 406.53,-482.63 412.44,-478.88"/>
<text text-anchor="middle" x="459.5" y="-514.8" font-family="Times,serif" font-size="14.00">install</text>
</g>
<!-- SRC -->
<g id="node3" class="node">
<title>SRC</title>
<polygon fill="royalblue" stroke="black" points="586.5,-463.88 583.5,-467.88 562.5,-467.88 559.5,-463.88 513.5,-463.88 513.5,-427.88 586.5,-427.88 586.5,-463.88"/>
<text text-anchor="middle" x="550" y="-442.18" font-family="Times,serif" font-size="14.00">git repo</text>
</g>
<!-- DEVEL_IMG -->
<g id="node5" class="node">
<title>DEVEL_IMG</title>
<path fill="royalblue" stroke="black" d="M496.5,-364.1C496.5,-366.74 450.11,-368.88 393,-368.88 335.89,-368.88 289.5,-366.74 289.5,-364.1 289.5,-364.1 289.5,-321.15 289.5,-321.15 289.5,-318.51 335.89,-316.37 393,-316.37 450.11,-316.37 496.5,-318.51 496.5,-321.15 496.5,-321.15 496.5,-364.1 496.5,-364.1"/>
<path fill="none" stroke="black" d="M496.5,-364.1C496.5,-361.47 450.11,-359.33 393,-359.33 335.89,-359.33 289.5,-361.47 289.5,-364.1"/>
<text text-anchor="middle" x="393" y="-346.43" font-family="Times,serif" font-size="14.00">bazel&#45;swig:&lt;distro&gt;_devel</text>
<text text-anchor="middle" x="393" y="-331.43" font-family="Times,serif" font-size="14.00">devel</text>
</g>
<!-- SRC&#45;&gt;DEVEL_IMG -->
<g id="edge6" class="edge">
<title>SRC&#45;&gt;DEVEL_IMG</title>
<path fill="none" stroke="black" stroke-dasharray="5,2" d="M523.37,-427.7C500.79,-413.14 467.85,-391.9 440.73,-374.41"/>
<polygon fill="black" stroke="black" points="442.45,-371.35 432.15,-368.87 438.66,-377.24 442.45,-371.35"/>
<text text-anchor="middle" x="497" y="-390.55" font-family="Times,serif" font-size="14.00">copy</text>
</g>
<!-- ENV_IMG&#45;&gt;DEVEL_IMG -->
<g id="edge1" class="edge">
<title>ENV_IMG&#45;&gt;DEVEL_IMG</title>
<path fill="none" stroke="black" d="M389.25,-419.59C389.85,-407.38 390.58,-392.54 391.24,-379.22"/>
<polygon fill="black" stroke="black" points="394.75,-379.1 391.75,-368.94 387.76,-378.76 394.75,-379.1"/>
</g>
<!-- ENV_TAR -->
<g id="node8" class="node">
<title>ENV_TAR</title>
<polygon fill="royalblue" stroke="black" points="130,-52 16,-52 16,-16 136,-16 136,-46 130,-52"/>
<polyline fill="none" stroke="black" points="130,-52 130,-46 "/>
<polyline fill="none" stroke="black" points="136,-46 130,-46 "/>
<text text-anchor="middle" x="76" y="-30.3" font-family="Times,serif" font-size="14.00">docker_env.tar</text>
</g>
<!-- ENV_IMG&#45;&gt;ENV_TAR -->
<g id="edge7" class="edge">
<title>ENV_IMG&#45;&gt;ENV_TAR</title>
<path fill="none" stroke="red" d="M290.81,-434.64C191.58,-421.42 52,-393.89 52,-343.62 52,-343.62 52,-343.62 52,-149.12 52,-118.75 60.24,-84.78 67.07,-61.86"/>
<polygon fill="red" stroke="red" points="70.46,-62.75 70.07,-52.16 63.77,-60.68 70.46,-62.75"/>
<text text-anchor="middle" x="142.5" y="-249.68" font-family="Times,serif" font-size="14.00">make save_&lt;distro&gt;_env</text>
</g>
<!-- BUILD_IMG -->
<g id="node6" class="node">
<title>BUILD_IMG</title>
<path fill="royalblue" stroke="black" d="M497.5,-274.85C497.5,-277.49 451.56,-279.63 395,-279.63 338.44,-279.63 292.5,-277.49 292.5,-274.85 292.5,-274.85 292.5,-231.9 292.5,-231.9 292.5,-229.26 338.44,-227.12 395,-227.12 451.56,-227.12 497.5,-229.26 497.5,-231.9 497.5,-231.9 497.5,-274.85 497.5,-274.85"/>
<path fill="none" stroke="black" d="M497.5,-274.85C497.5,-272.22 451.56,-270.08 395,-270.08 338.44,-270.08 292.5,-272.22 292.5,-274.85"/>
<text text-anchor="middle" x="395" y="-257.18" font-family="Times,serif" font-size="14.00">bazel&#45;swig:&lt;distro&gt;_build</text>
<text text-anchor="middle" x="395" y="-242.18" font-family="Times,serif" font-size="14.00">build</text>
</g>
<!-- DEVEL_IMG&#45;&gt;BUILD_IMG -->
<g id="edge2" class="edge">
<title>DEVEL_IMG&#45;&gt;BUILD_IMG</title>
<path fill="none" stroke="black" d="M393.58,-316.39C393.77,-308.07 393.98,-298.66 394.19,-289.72"/>
<polygon fill="black" stroke="black" points="397.69,-289.63 394.42,-279.55 390.69,-289.47 397.69,-289.63"/>
</g>
<!-- DEVEL_TAR -->
<g id="node9" class="node">
<title>DEVEL_TAR</title>
<polygon fill="royalblue" stroke="black" points="283.5,-52 154.5,-52 154.5,-16 289.5,-16 289.5,-46 283.5,-52"/>
<polyline fill="none" stroke="black" points="283.5,-52 283.5,-46 "/>
<polyline fill="none" stroke="black" points="289.5,-46 283.5,-46 "/>
<text text-anchor="middle" x="222" y="-30.3" font-family="Times,serif" font-size="14.00">docker_devel.tar</text>
</g>
<!-- DEVEL_IMG&#45;&gt;DEVEL_TAR -->
<g id="edge8" class="edge">
<title>DEVEL_IMG&#45;&gt;DEVEL_TAR</title>
<path fill="none" stroke="red" d="M331.79,-316.46C314.5,-306.97 296.89,-294.7 284,-279.5 230,-215.86 222.04,-111.46 221.5,-62.27"/>
<polygon fill="red" stroke="red" points="225,-62.09 221.49,-52.09 218,-62.1 225,-62.09"/>
<text text-anchor="middle" x="341.5" y="-198.05" font-family="Times,serif" font-size="14.00">make save_&lt;distro&gt;_devel</text>
</g>
<!-- TEST_IMG -->
<g id="node7" class="node">
<title>TEST_IMG</title>
<path fill="royalblue" stroke="black" d="M489.5,-171.6C489.5,-174.24 445.35,-176.38 391,-176.38 336.65,-176.38 292.5,-174.24 292.5,-171.6 292.5,-171.6 292.5,-128.65 292.5,-128.65 292.5,-126.01 336.65,-123.87 391,-123.87 445.35,-123.87 489.5,-126.01 489.5,-128.65 489.5,-128.65 489.5,-171.6 489.5,-171.6"/>
<path fill="none" stroke="black" d="M489.5,-171.6C489.5,-168.97 445.35,-166.83 391,-166.83 336.65,-166.83 292.5,-168.97 292.5,-171.6"/>
<text text-anchor="middle" x="391" y="-153.93" font-family="Times,serif" font-size="14.00">bazel&#45;swig:&lt;distro&gt;_test</text>
<text text-anchor="middle" x="391" y="-138.93" font-family="Times,serif" font-size="14.00">test</text>
</g>
<!-- BUILD_IMG&#45;&gt;TEST_IMG -->
<g id="edge3" class="edge">
<title>BUILD_IMG&#45;&gt;TEST_IMG</title>
<path fill="none" stroke="black" d="M443.68,-227.05C454.74,-217.79 461.54,-206.54 455,-194.25 452.95,-190.39 450.38,-186.82 447.46,-183.51"/>
<polygon fill="black" stroke="black" points="449.68,-180.79 440.08,-176.3 444.78,-185.79 449.68,-180.79"/>
</g>
<!-- BUILD_TAR -->
<g id="node10" class="node">
<title>BUILD_TAR</title>
<polygon fill="royalblue" stroke="black" points="577.5,-52 450.5,-52 450.5,-16 583.5,-16 583.5,-46 577.5,-52"/>
<polyline fill="none" stroke="black" points="577.5,-52 577.5,-46 "/>
<polyline fill="none" stroke="black" points="583.5,-46 577.5,-46 "/>
<text text-anchor="middle" x="517" y="-30.3" font-family="Times,serif" font-size="14.00">docker_build.tar</text>
</g>
<!-- BUILD_IMG&#45;&gt;BUILD_TAR -->
<g id="edge9" class="edge">
<title>BUILD_IMG&#45;&gt;BUILD_TAR</title>
<path fill="none" stroke="red" d="M442.13,-227.12C462.19,-214.27 484.3,-196.96 499,-176.25 522.09,-143.73 530.52,-130.72 527,-91 526.16,-81.53 524.54,-71.25 522.84,-62.13"/>
<polygon fill="red" stroke="red" points="526.22,-61.19 520.85,-52.05 519.35,-62.54 526.22,-61.19"/>
<text text-anchor="middle" x="622.5" y="-146.43" font-family="Times,serif" font-size="14.00">make save_&lt;distro&gt;_build</text>
</g>
<!-- TEST_TAR -->
<g id="node11" class="node">
<title>TEST_TAR</title>
<polygon fill="royalblue" stroke="black" points="426.5,-52 307.5,-52 307.5,-16 432.5,-16 432.5,-46 426.5,-52"/>
<polyline fill="none" stroke="black" points="426.5,-52 426.5,-46 "/>
<polyline fill="none" stroke="black" points="432.5,-46 426.5,-46 "/>
<text text-anchor="middle" x="370" y="-30.3" font-family="Times,serif" font-size="14.00">docker_test.tar</text>
</g>
<!-- TEST_IMG&#45;&gt;TEST_TAR -->
<g id="edge10" class="edge">
<title>TEST_IMG&#45;&gt;TEST_TAR</title>
<path fill="none" stroke="red" d="M356.16,-123.69C351.22,-118.43 346.85,-112.49 344,-106 337.56,-91.35 343.15,-74.56 350.77,-60.99"/>
<polygon fill="red" stroke="red" points="353.94,-62.51 356.24,-52.17 347.99,-58.81 353.94,-62.51"/>
<text text-anchor="middle" x="435.5" y="-94.8" font-family="Times,serif" font-size="14.00">make save_&lt;distro&gt;_test</text>
</g>
</g>
</svg>
